<svg xmlns="http://www.w3.org/2000/svg" version="1.1" width="12.5in" height="7in" viewBox = " 0 0 1125 630" >
<!-- Front--> 
<g transform="translate(22.5, 22.5) " > 
<polygon style="stroke:#000000; fill:none; stroke-width:0.9" points="0, 0 56.25, 0 56.25, 10.62 112.5, 10.62 112.5, 0 157.5, 0 157.5, 10.62 202.5, 10.62 202.5, 0 247.5, 0 247.5, 10.62 303.75, 10.62 303.75, 0 360, 0 360, 45 349.38, 45 349.38, 90 360, 90 360, 135 349.38, 135 349.38, 180 360, 180 360, 225 303.75, 225 303.75, 214.38 247.5, 214.38 247.5, 225 202.5, 225 202.5, 214.38 157.5, 214.38 157.5, 225 112.5, 225 112.5, 214.38 56.25, 214.38 56.25, 225 0, 225 0, 180 10.62, 180 10.62, 135 0, 135 0, 90 10.62, 90 10.62, 45 0, 45 "/> 
</g>
<!-- Back--> 
<g transform="translate(382.5, 22.5) " > 
<polygon style="stroke:#000000; fill:none; stroke-width:0.9" points="0, 0 56.25, 0 56.25, 10.62 112.5, 10.62 112.5, 0 157.5, 0 157.5, 10.62 202.5, 10.62 202.5, 0 247.5, 0 247.5, 10.62 303.75, 10.62 303.75, 0 360, 0 360, 45 349.38, 45 349.38, 90 360, 90 360, 135 349.38, 135 349.38, 180 360, 180 360, 225 303.75, 225 303.75, 214.38 247.5, 214.38 247.5, 225 202.5, 225 202.5, 214.38 157.5, 214.38 157.5, 225 112.5, 225 112.5, 214.38 56.25, 214.38 56.25, 225 0, 225 0, 180 10.62, 180 10.62, 135 0, 135 0, 90 10.62, 90 10.62, 45 0, 45 "/> 
</g>
<!-- Left--> 
<g transform="translate(742.5, 22.5) " > 
<polygon style="stroke:#000000; fill:none; stroke-width:0.9" points="10.62, 0 56.25, 0 56.25, 10.62 112.5, 10.62 112.5, 0 157.5, 0 157.5, 10.62 202.5, 10.62 202.5, 0 247.5, 0 247.5, 10.62 303.75, 10.62 303.75, 0 349.38, 0 349.38, 45 360, 45 360, 90 349.38, 90 349.38, 135 360, 135 360, 180 349.38, 180 349.38, 225 303.75, 225 303.75, 214.38 247.5, 214.38 247.5, 225 202.5, 225 202.5, 214.38 157.5, 214.38 157.5, 225 112.5, 225 112.5, 214.38 56.25, 214.38 56.25, 225 10.62, 225 10.62, 180 0, 180 0, 135 10.62, 135 10.62, 90 0, 90 0, 45 10.62, 45 "/> 
 <rect x="165.6" y="180" width="28.8" height="10.799999999999999" rx="0" ry="0" style="stroke:#000000;stroke-width:0.9;fill:none" /> 
</g>
<!-- Right--> 
<g transform="translate(742.5, 247.5) " > 
<polygon style="stroke:#000000; fill:none; stroke-width:0.9" points="10.62, 0 56.25, 0 56.25, 10.62 112.5, 10.62 112.5, 0 157.5, 0 157.5, 10.62 202.5, 10.62 202.5, 0 247.5, 0 247.5, 10.62 303.75, 10.62 303.75, 0 349.38, 0 349.38, 45 360, 45 360, 90 349.38, 90 349.38, 135 360, 135 360, 180 349.38, 180 349.38, 225 303.75, 225 303.75, 214.38 247.5, 214.38 247.5, 225 202.5, 225 202.5, 214.38 157.5, 214.38 157.5, 225 112.5, 225 112.5, 214.38 56.25, 214.38 56.25, 225 10.62, 225 10.62, 180 0, 180 0, 135 10.62, 135 10.62, 90 0, 90 0, 45 10.62, 45 "/> 
</g>
<!-- Top--> 
<g transform="translate(22.5, 247.5) " > 
<polygon style="stroke:#000000; fill:none; stroke-width:0.9" points="10.62, 10.62 56.25, 10.62 56.25, 0 112.5, 0 112.5, 10.62 157.5, 10.62 157.5, 0 202.5, 0 202.5, 10.62 247.5, 10.62 247.5, 0 303.75, 0 303.75, 10.62 349.38, 10.62 349.38, 56.25 360, 56.25 360, 112.5 349.38, 112.5 349.38, 157.5 360, 157.5 360, 202.5 349.38, 202.5 349.38, 247.5 360, 247.5 360, 303.75 349.38, 303.75 349.38, 349.38 303.75, 349.38 303.75, 360 247.5, 360 247.5, 349.38 202.5, 349.38 202.5, 360 157.5, 360 157.5, 349.38 112.5, 349.38 112.5, 360 56.25, 360 56.25, 349.38 10.62, 349.38 10.62, 303.75 0, 303.75 0, 247.5 10.62, 247.5 10.62, 202.5 0, 202.5 0, 157.5 10.62, 157.5 10.62, 112.5 0, 112.5 0, 56.25 10.62, 56.25 "/> 
 <circle cx="90" cy="90" r="13.5" style="stroke:#000000;stroke-width:0.9;fill:none" /> 
 <circle cx="270" cy="90" r="13.5" style="stroke:#000000;stroke-width:0.9;fill:none" /> 
 <rect x="67.5" y="247.5" width="45" height="45" rx="0" ry="0" style="stroke:#000000;stroke-width:0.9;fill:none" /> 
 <rect x="256.5" y="256.5" width="27" height="27" rx="0" ry="0" style="stroke:#000000;stroke-width:0.9;fill:none" /> 
 <circle cx="225" cy="135" r="9" style="stroke:#000000;stroke-width:0.9;fill:none" /> 
</g>
<!-- Bottom--> 
<g transform="translate(382.5, 247.5) " > 
<polygon style="stroke:#000000; fill:none; stroke-width:0.9" points="10.62, 10.62 56.25, 10.62 56.25, 0 112.5, 0 112.5, 10.62 157.5, 10.62 157.5, 0 202.5, 0 202.5, 10.62 247.5, 10.62 247.5, 0 303.75, 0 303.75, 10.62 349.38, 10.62 349.38, 56.25 360, 56.25 360, 112.5 349.38, 112.5 349.38, 157.5 360, 157.5 360, 202.5 349.38, 202.5 349.38, 247.5 360, 247.5 360, 303.75 349.38, 303.75 349.38, 349.38 303.75, 349.38 303.75, 360 247.5, 360 247.5, 349.38 202.5, 349.38 202.5, 360 157.5, 360 157.5, 349.38 112.5, 349.38 112.5, 360 56.25, 360 56.25, 349.38 10.62, 349.38 10.62, 303.75 0, 303.75 0, 247.5 10.62, 247.5 10.62, 202.5 0, 202.5 0, 157.5 10.62, 157.5 10.62, 112.5 0, 112.5 0, 56.25 10.62, 56.25 "/> 
</g></svg>